<?xml version="1.0" encoding="utf-8"?>
<!-- Generator: Adobe Illustrator 25.2.3, SVG Export Plug-In . SVG Version: 6.00 Build 0)  -->
<svg version="1.1" xmlns="http://www.w3.org/2000/svg" xmlns:xlink="http://www.w3.org/1999/xlink" x="0px" y="0px"
	 viewBox="0 0 800 800" style="enable-background:new 0 0 800 800;" xml:space="preserve">
<style type="text/css">
	.st0{clip-path:url(#SVGID_2_);fill:#E6E6E6;}
	.st1{fill:url(#SVGID_3_);}
	.st2{display:none;fill:url(#SVGID_4_);}
	.st3{fill:url(#SVGID_5_);}
</style>
<g id="图层_1">
	<circle cx="487.5" cy="487.5" r="218.75"/>
	<g id="图层_2">
		<defs>
			<path id="SVGID_1_" d="M272.42,527.58c0,0-3.67-127.58,127.58-127.58s127.58-127.58,127.58-127.58
				c2.15-26.39,3.68-92.14-38.85-145.37C420.41,41.55,278.76,39.04,185.5,95.93C92.63,152.58,28.38,279.92,76.2,391.2
				C126.46,508.18,265.95,526.82,272.42,527.58z"/>
		</defs>
		<clipPath id="SVGID_2_">
			<use xlink:href="#SVGID_1_"  style="overflow:visible;"/>
		</clipPath>
		<circle class="st0" cx="312.5" cy="312.5" r="218.75"/>
	</g>
	<g>
		<linearGradient id="SVGID_3_" gradientUnits="userSpaceOnUse" x1="537.5919" y1="400.0005" x2="262.4081" y2="400.0005">
			<stop  offset="0" style="stop-color:#FFD43B"/>
			<stop  offset="1" style="stop-color:#306998"/>
		</linearGradient>
		<path class="st1" d="M272.42,527.58c-1.11-8.49-1.1-17.16-0.39-25.78c0.73-8.63,2.25-17.25,4.57-25.72
			c4.65-16.93,12.92-33.33,25.01-47.05c6.05-6.84,13.1-12.84,20.73-17.94c7.58-5.25,15.99-9.1,24.52-12.34
			c2.16-0.74,4.31-1.5,6.48-2.21c1.08-0.4,2.19-0.61,3.28-0.91l3.3-0.84c4.39-1.25,8.85-1.92,13.29-2.73
			c2.22-0.47,4.46-0.63,6.69-0.86l6.7-0.67c4.46-0.27,8.92-0.35,13.38-0.52c4.01-0.15,8.04-0.17,12.04-0.37l5.96-0.54
			c1.99-0.18,3.98-0.32,5.93-0.68c3.91-0.61,7.87-1.07,11.67-2.05l2.88-0.64c0.95-0.23,1.94-0.38,2.86-0.7
			c1.87-0.58,3.74-1.13,5.63-1.68c14.94-4.66,28.63-12.54,40.11-23.26c11.4-10.81,20.45-24.42,27.07-39.44
			c6.61-15.04,11.15-31.33,13.43-48.23c1.11,8.49,1.11,17.16,0.4,25.78c-0.73,8.63-2.24,17.25-4.57,25.73
			c-4.65,16.93-12.92,33.34-25.01,47.06c-6.04,6.85-13.1,12.84-20.74,17.95c-7.58,5.26-16,9.09-24.53,12.33
			c-2.15,0.75-4.31,1.49-6.48,2.21c-1.08,0.4-2.19,0.61-3.29,0.91l-3.3,0.84c-4.39,1.25-8.85,1.92-13.3,2.73
			c-2.22,0.45-4.46,0.62-6.69,0.85l-6.7,0.67c-4.46,0.27-8.92,0.36-13.38,0.52c-4.01,0.13-8.04,0.16-12.04,0.36L382,410.9
			c-1.99,0.18-3.98,0.32-5.93,0.67c-3.91,0.61-7.87,1.07-11.68,2.06l-2.88,0.64c-0.95,0.23-1.94,0.38-2.86,0.7
			c-1.87,0.58-3.75,1.12-5.63,1.67c-14.94,4.67-28.64,12.53-40.12,23.26c-11.41,10.81-20.45,24.42-27.07,39.45
			C279.21,494.39,274.68,510.68,272.42,527.58z"/>
	</g>
	
		<linearGradient id="SVGID_4_" gradientUnits="userSpaceOnUse" x1="160.9456" y1="-14.0544" x2="639.0544" y2="814.0544" gradientTransform="matrix(-1 0 0 -1 800 800)">
		<stop  offset="0" style="stop-color:#4B8BBE"/>
		<stop  offset="0.1785" style="stop-color:#4D8BBB"/>
		<stop  offset="0.2858" style="stop-color:#5489B3"/>
		<stop  offset="0.3742" style="stop-color:#6187A5"/>
		<stop  offset="0.452" style="stop-color:#728391"/>
		<stop  offset="0.5" style="stop-color:#808080"/>
		<stop  offset="0.5318" style="stop-color:#979073"/>
		<stop  offset="0.5839" style="stop-color:#B7A562"/>
		<stop  offset="0.6407" style="stop-color:#D1B654"/>
		<stop  offset="0.7028" style="stop-color:#E6C349"/>
		<stop  offset="0.7731" style="stop-color:#F4CD41"/>
		<stop  offset="0.8583" style="stop-color:#FCD23C"/>
		<stop  offset="1" style="stop-color:#FFD43B"/>
	</linearGradient>
	<polygon class="st2" points="50,50 750,50 750,750 50,750 	"/>
</g>
<g id="图层_4">
	<g>
		<g>
			<linearGradient id="SVGID_5_" gradientUnits="userSpaceOnUse" x1="145.8098" y1="145.4968" x2="654.5032" y2="654.1902">
				<stop  offset="0" style="stop-color:#4B8BBE"/>
				<stop  offset="0.1785" style="stop-color:#4D8BBB"/>
				<stop  offset="0.2858" style="stop-color:#5489B3"/>
				<stop  offset="0.3742" style="stop-color:#6187A5"/>
				<stop  offset="0.452" style="stop-color:#728391"/>
				<stop  offset="0.5" style="stop-color:#808080"/>
				<stop  offset="0.5318" style="stop-color:#979073"/>
				<stop  offset="0.5839" style="stop-color:#B7A562"/>
				<stop  offset="0.6407" style="stop-color:#D1B654"/>
				<stop  offset="0.7028" style="stop-color:#E6C349"/>
				<stop  offset="0.7731" style="stop-color:#F4CD41"/>
				<stop  offset="0.8583" style="stop-color:#FCD23C"/>
				<stop  offset="1" style="stop-color:#FFD43B"/>
			</linearGradient>
			<path class="st3" d="M486.96,713.04c19.16,0,34.78-15.62,34.78-34.78s-15.62-34.78-34.78-34.78c-19.16,0-34.78,15.62-34.78,34.78
				S467.8,713.04,486.96,713.04z M313.04,86.96c-19.16,0-34.78,15.63-34.78,34.78s15.62,34.78,34.78,34.78
				c19.16,0,34.78-15.62,34.78-34.78S332.2,86.96,313.04,86.96z M763.59,269.02c-22.89-29.14-55.16-42.93-86.96-42.93H591.3V123.37
				c0-26.83-11.89-58.36-42.39-82.61C518.41,16.51,470.52,0,400,0c-70.58,0-118.48,16.85-148.91,41.3
				c-30.43,24.46-42.39,55.91-42.39,82.07v85.33h173.91v17.39H123.37c-31.79,0-64.06,13.79-86.96,42.93C13.52,298.17,0,341.64,0,400
				c0,58.36,13.52,101.83,36.41,130.98c22.89,29.14,55.16,42.93,86.96,42.93h85.33v102.72c0,26.15,11.96,57.61,42.39,82.07
				C281.52,783.15,329.42,800,400,800s118.48-16.85,148.91-41.3c30.43-24.46,42.39-55.91,42.39-82.07V591.3H417.39v-17.39h259.24
				c31.79,0,64.06-13.79,86.96-42.93C786.48,501.83,800,458.36,800,400C800,341.64,786.48,298.17,763.59,269.02z M735.87,509.24
				c-16.71,21.26-37.16,29.89-59.24,29.89H382.61v86.96h173.91v50.54c0,15.56-6.73,36.75-29.35,54.89
				c-22.62,18.14-62.09,33.7-127.17,33.7s-104.55-15.56-127.17-33.7c-22.62-18.14-29.35-39.33-29.35-54.89V520.12
				c-12.1-4.02-23.72-9.08-34.78-15.05v34.06h-85.33c-22.08,0-42.53-8.63-59.24-29.89C47.42,487.98,34.78,452.92,34.78,400
				s12.64-87.98,29.35-109.24c16.71-21.26,37.16-29.89,59.24-29.89h294.02v-86.96H243.48v-50.54c0-15.56,6.73-36.75,29.35-54.89
				c22.62-18.14,62.09-33.7,127.17-33.7c65.15,0,104.62,15.22,127.17,33.15c22.55,17.93,29.35,38.79,29.35,55.43v156.51
				c12.1,4.02,23.72,9.08,34.78,15.05v-34.06h85.33c22.08,0,42.53,8.63,59.24,29.89c16.71,21.26,29.35,56.32,29.35,109.24
				S752.58,487.98,735.87,509.24z"/>
		</g>
	</g>
</g>
</svg>
