<?xml version="1.0" encoding="utf-8"?>
<!-- Generator: Adobe Illustrator 25.2.3, SVG Export Plug-In . SVG Version: 6.00 Build 0)  -->
<svg version="1.1" id="图层_1" xmlns="http://www.w3.org/2000/svg" xmlns:xlink="http://www.w3.org/1999/xlink" x="0px" y="0px"
	 viewBox="0 0 2400 800" style="enable-background:new 0 0 2400 800;" xml:space="preserve">
<style type="text/css">
	.st0{clip-path:url(#SVGID_2_);fill:#E6E6E6;}
	.st1{fill:url(#SVGID_3_);}
	.st2{display:none;fill:url(#SVGID_4_);}
	.st3{fill:url(#SVGID_5_);}
	.st4{fill:none;}
	.st5{fill:#E6E6E6;stroke:#000000;stroke-width:3;stroke-miterlimit:10;}
	.st6{font-family:'TimesNewRomanPSMT';}
	.st7{font-size:360px;}
</style>
<g id="图层_1_1_">
	<circle cx="487.5" cy="487.5" r="218.8"/>
	<g id="图层_2_1_">
		<g>
			<g>
				<defs>
					<path id="SVGID_1_" d="M272.4,527.6c0,0-3.7-127.6,127.6-127.6s127.6-127.6,127.6-127.6c2.2-26.4,3.7-92.1-38.9-145.4
						c-68.3-85.5-210-88-303.2-31.1c-92.9,56.7-157.1,184-109.3,295.3C126.5,508.2,266,526.8,272.4,527.6z"/>
				</defs>
				<clipPath id="SVGID_2_">
					<use xlink:href="#SVGID_1_"  style="overflow:visible;"/>
				</clipPath>
				<circle class="st0" cx="312.5" cy="312.5" r="218.8"/>
			</g>
		</g>
	</g>
	<g>
		<linearGradient id="SVGID_3_" gradientUnits="userSpaceOnUse" x1="537.5919" y1="400.15" x2="262.4081" y2="400.15">
			<stop  offset="0" style="stop-color:#FFD43B"/>
			<stop  offset="1" style="stop-color:#306998"/>
		</linearGradient>
		<path class="st1" d="M272.4,527.6c-1.1-8.5-1.1-17.2-0.4-25.8c0.7-8.6,2.2-17.2,4.6-25.7c4.6-16.9,12.9-33.3,25-47
			c6-6.8,13.1-12.8,20.7-17.9c7.6-5.2,16-9.1,24.5-12.3c2.2-0.7,4.3-1.5,6.5-2.2c1.1-0.4,2.2-0.6,3.3-0.9l3.3-0.8
			c4.4-1.2,8.9-1.9,13.3-2.7c2.2-0.5,4.5-0.6,6.7-0.9l6.7-0.7c4.5-0.3,8.9-0.4,13.4-0.5c4-0.1,8-0.2,12-0.4l6-0.5
			c2-0.2,4-0.3,5.9-0.7c3.9-0.6,7.9-1.1,11.7-2l2.9-0.6c1-0.2,1.9-0.4,2.9-0.7c1.9-0.6,3.7-1.1,5.6-1.7
			c14.9-4.7,28.6-12.5,40.1-23.3c11.4-10.8,20.5-24.4,27.1-39.4c6.6-15,11.2-31.3,13.4-48.2c1.1,8.5,1.1,17.2,0.4,25.8
			c-0.7,8.6-2.2,17.2-4.6,25.7c-4.7,16.9-12.9,33.3-25,47.1c-6,6.9-13.1,12.8-20.7,18c-7.6,5.3-16,9.1-24.5,12.3
			c-2.1,0.8-4.3,1.5-6.5,2.2c-1.1,0.4-2.2,0.6-3.3,0.9l-3.3,0.8c-4.4,1.2-8.9,1.9-13.3,2.7c-2.2,0.5-4.5,0.6-6.7,0.9l-6.7,0.7
			c-4.5,0.3-8.9,0.4-13.4,0.5c-4,0.1-8,0.2-12,0.4l-5.9,0.5c-2,0.2-4,0.3-5.9,0.7c-3.9,0.6-7.9,1.1-11.7,2.1l-2.9,0.6
			c-1,0.2-1.9,0.4-2.9,0.7c-1.9,0.6-3.8,1.1-5.6,1.7c-14.9,4.7-28.6,12.5-40.1,23.3c-11.4,10.8-20.5,24.4-27.1,39.5
			C279.2,494.4,274.7,510.7,272.4,527.6z"/>
	</g>
	
		<linearGradient id="SVGID_4_" gradientUnits="userSpaceOnUse" x1="1760.9457" y1="-14.0545" x2="2239.0544" y2="814.0544" gradientTransform="matrix(-1 0 0 -1 2400 800)">
		<stop  offset="0" style="stop-color:#4B8BBE"/>
		<stop  offset="0.1785" style="stop-color:#4D8BBB"/>
		<stop  offset="0.2858" style="stop-color:#5489B3"/>
		<stop  offset="0.3742" style="stop-color:#6187A5"/>
		<stop  offset="0.452" style="stop-color:#728391"/>
		<stop  offset="0.5" style="stop-color:#808080"/>
		<stop  offset="0.5318" style="stop-color:#979073"/>
		<stop  offset="0.5839" style="stop-color:#B7A562"/>
		<stop  offset="0.6407" style="stop-color:#D1B654"/>
		<stop  offset="0.7028" style="stop-color:#E6C349"/>
		<stop  offset="0.7731" style="stop-color:#F4CD41"/>
		<stop  offset="0.8583" style="stop-color:#FCD23C"/>
		<stop  offset="1" style="stop-color:#FFD43B"/>
	</linearGradient>
	<polygon class="st2" points="50,50 750,50 750,750 50,750 	"/>
</g>
<g id="图层_4">
	<g>
		<g>
			<linearGradient id="SVGID_5_" gradientUnits="userSpaceOnUse" x1="145.8228" y1="145.5139" x2="654.4861" y2="654.1772">
				<stop  offset="0" style="stop-color:#4B8BBE"/>
				<stop  offset="0.1785" style="stop-color:#4D8BBB"/>
				<stop  offset="0.2858" style="stop-color:#5489B3"/>
				<stop  offset="0.3742" style="stop-color:#6187A5"/>
				<stop  offset="0.452" style="stop-color:#728391"/>
				<stop  offset="0.5" style="stop-color:#808080"/>
				<stop  offset="0.5318" style="stop-color:#979073"/>
				<stop  offset="0.5839" style="stop-color:#B7A562"/>
				<stop  offset="0.6407" style="stop-color:#D1B654"/>
				<stop  offset="0.7028" style="stop-color:#E6C349"/>
				<stop  offset="0.7731" style="stop-color:#F4CD41"/>
				<stop  offset="0.8583" style="stop-color:#FCD23C"/>
				<stop  offset="1" style="stop-color:#FFD43B"/>
			</linearGradient>
			<path class="st3" d="M487,713c19.2,0,34.8-15.6,34.8-34.8s-15.6-34.8-34.8-34.8s-34.8,15.6-34.8,34.8S467.8,713,487,713z M313,87
				c-19.2,0-34.8,15.6-34.8,34.8s15.6,34.8,34.8,34.8s34.8-15.6,34.8-34.8S332.2,87,313,87z M763.6,269
				c-22.9-29.1-55.2-42.9-87-42.9h-85.3V123.4c0-26.8-11.9-58.4-42.4-82.6S470.5,0,400,0c-70.6,0-118.5,16.9-148.9,41.3
				c-30.4,24.5-42.4,55.9-42.4,82.1v85.3h173.9v17.4H123.4c-31.8,0-64.1,13.8-87,42.9C13.5,298.2,0,341.6,0,400s13.5,101.8,36.4,131
				c22.9,29.1,55.2,42.9,87,42.9h85.3v102.7c0,26.2,12,57.6,42.4,82.1S329.4,800,400,800s118.5-16.8,148.9-41.3s42.4-55.9,42.4-82.1
				v-85.3H417.4v-17.4h259.2c31.8,0,64.1-13.8,87-42.9c22.9-29.1,36.4-72.6,36.4-131S786.5,298.2,763.6,269z M735.9,509.2
				c-16.7,21.3-37.2,29.9-59.2,29.9h-294v87h173.9v50.5c0,15.6-6.7,36.8-29.3,54.9s-62.1,33.7-127.2,33.7s-104.5-15.6-127.2-33.7
				s-29.4-39.3-29.4-54.9V520.1c-12.1-4-23.7-9.1-34.8-15v34.1h-85.3c-22.1,0-42.5-8.6-59.2-29.9C47.4,488,34.8,452.9,34.8,400
				s12.6-88,29.3-109.2c16.7-21.3,37.2-29.9,59.2-29.9h294v-87H243.5v-50.5c0-15.6,6.7-36.8,29.3-54.9S334.9,34.8,400,34.8
				S504.6,50,527.2,68c22.6,18,29.3,38.8,29.3,55.4v156.5c12.1,4,23.7,9.1,34.8,15v-34.1h85.3c22.1,0,42.5,8.6,59.2,29.9
				s29.3,56.3,29.3,109.2S752.6,488,735.9,509.2z"/>
		</g>
	</g>
</g>
<rect x="842.8" class="st4" width="1557.2" height="800"/>
<text transform="matrix(1 0 0 1 842.7949 480.6396)" class="st5 st6 st7">pyGobang</text>
</svg>
